├â┼╕├â┼╕├â┼╕├â┼╕├â┼╕├â┼╕├â┼╕├â┼╕├â┼╕├â┼╕├â┼╕├â┼╕├â┼╕├â┼╕├â┼╕├â┼╕├â┼╕├â┼╕├â┼╕├â┼╕├â┼╕├â┼╕├â┼╕├â┼╕├â┼╕├â┼╕├â┼╕├â┼╕├â┼╕├â┼╕├â┼╕├â┼╕├â┼╕├â┼╕├â┼╕├â┼╕├â┼╕├â┼╕├â┼╕├â┼╕├â┼╕├â┼╕├â┼╕├â┼╕├â┼╕├â┼╕├â┼╕├â┼╕├â┼╕├â┼╕├â┼╕├â┼╕├â┼╕├â┼╕├â┼╕├â┼╕├â┼╕├â┼╕├â┼╕├â┼╕├â┼╕├â┼╕├â┼╕├â┼╕├â┼╕├â┼╕├â┼╕├â┼╕├â┼╕├â┼╕

              ├âΓÇ║├é┬░├é┬░├é┬░├é┬░├é┬░├é┬░├é┬░├é┬░├é┬░├é┬░├é┬░├é┬░├é┬░├é┬░├é┬░├é┬░├é┬░├é┬░├é┬░├é┬░├é┬░├é┬░├é┬░├é┬░├é┬░├é┬░├é┬░├é┬░├é┬░├é┬░├é┬░├é┬░├é┬░├é┬░├é┬░├é┬░├é┬░├é┬░├é┬░├é┬░├é┬░├âΓÇ║
             ├âΓÇ║├âΓÇ║ Resident Evil Extinction[2009]DvDrip-LW ├âΓÇ║├âΓÇ║
              ├âΓÇ║├é┬░├é┬░├é┬░├é┬░├é┬░├é┬░├é┬░├é┬░├é┬░├é┬░├é┬░├é┬░├é┬░├é┬░├é┬░├é┬░├é┬░├é┬░├é┬░├é┬░├é┬░├é┬░├é┬░├é┬░├é┬░├é┬░├é┬░├é┬░├é┬░├é┬░├é┬░├é┬░├é┬░├é┬░├é┬░├é┬░├é┬░├é┬░├é┬░├é┬░├é┬░├âΓÇ║

File Name    : Resident Evil Extinction[2009]DvDrip-LW
Release Date : 2007
Type         : Movie
Format       : AVI
File Size    : 820 MB
Duration     : 01:34:05
Language     : English
Source       : DvD
Subtitles    : None
Genre        : Action | Horror | Sci-Fi | Thriller
IMDB Link    : http://www.imdb.com/title/tt0432021/
IMDB Rating  : 6.2/10
IMDB Votes   : 41,241 Votes
     ├â┼ô├â┼ô├â┼ô├â┼ô├â┼ô├â┼ô├â┼ô├â┼ô├â┼ô├â┼ô├â┼ô├â┼ô├â┼ô├â┼ô├â┼ô├â┼ô├â┼ô├â┼ô├â┼ô├â┼ô├â┼ô├â┼ô├â┼ô├â┼ô├â┼ô├â┼ô├â┼ô├â┼ô├â┼ô├â┼ô├â┼ô├â┼ô├â┼ô├â┼ô├â┼ô├â┼ô├â┼ô├â┼ô├â┼ô├â┼ô├â┼ô├â┼ô├â┼ô├â┼ô├â┼ô├â┼ô├â┼ô├â┼ô├â┼ô├â┼ô├â┼ô├â┼ô├â┼ô├â┼ô├â┼ô├â┼ô├â┼ô├â┼ô├â┼ô├â┼ô├â┼ô├â┼ô├â┼ô├â┼ô├â┼ô├â┼ô├â┼ô├â┼ô├â┼ô├â┼ô
 
                        ├âΓÇ║├é┬░├é┬░├é┬░├é┬░├é┬░├é┬░├é┬░├é┬░├é┬░├é┬░├é┬░├é┬░├é┬░├é┬░├é┬░├é┬░├é┬░├é┬░├é┬░├é┬░├é┬░├é┬░├é┬░├é┬░├âΓÇ║
                       ├âΓÇ║├âΓÇ║       Video Info       ├âΓÇ║├âΓÇ║
                        ├âΓÇ║├é┬░├é┬░├é┬░├é┬░├é┬░├é┬░├é┬░├é┬░├é┬░├é┬░├é┬░├é┬░├é┬░├é┬░├é┬░├é┬░├é┬░├é┬░├é┬░├é┬░├é┬░├é┬░├é┬░├é┬░├âΓÇ║

Format                           : MPEG-4 Visual
Format profile                   : Streaming Video@L1
Format settings, BVOP            : Yes
Format settings, QPel            : No
Format settings, GMC             : No warppoints
Format settings, Matrix          : Custom
Codec ID                         : XVID
Codec ID/Hint                    : XviD
Duration                         : 1h 34mn
Bit rate                         : 1 099 Kbps
Width                            : 672 pixels
Height                           : 288 pixels
Display aspect ratio             : 2.35
Frame rate                       : 23.976 fps
Resolution                       : 24 bits
Colorimetry                      : 4:2:0
Scan type                        : Progressive
Bits/(Pixel*Frame)               : 0.237
Stream size                      : 740 MiB (90%)
Writing library                  : XviD 1.2.1
     ├â┼ô├â┼ô├â┼ô├â┼ô├â┼ô├â┼ô├â┼ô├â┼ô├â┼ô├â┼ô├â┼ô├â┼ô├â┼ô├â┼ô├â┼ô├â┼ô├â┼ô├â┼ô├â┼ô├â┼ô├â┼ô├â┼ô├â┼ô├â┼ô├â┼ô├â┼ô├â┼ô├â┼ô├â┼ô├â┼ô├â┼ô├â┼ô├â┼ô├â┼ô├â┼ô├â┼ô├â┼ô├â┼ô├â┼ô├â┼ô├â┼ô├â┼ô├â┼ô├â┼ô├â┼ô├â┼ô├â┼ô├â┼ô├â┼ô├â┼ô├â┼ô├â┼ô├â┼ô├â┼ô├â┼ô├â┼ô├â┼ô├â┼ô├â┼ô├â┼ô├â┼ô├â┼ô├â┼ô├â┼ô├â┼ô├â┼ô├â┼ô├â┼ô├â┼ô├â┼ô

                         ├âΓÇ║├é┬░├é┬░├é┬░├é┬░├é┬░├é┬░├é┬░├é┬░├é┬░├é┬░├é┬░├é┬░├é┬░├é┬░├é┬░├é┬░├é┬░├é┬░├é┬░├é┬░├é┬░├é┬░├é┬░├é┬░├âΓÇ║
                        ├âΓÇ║├âΓÇ║      Sound Info        ├âΓÇ║├âΓÇ║
                         ├âΓÇ║├é┬░├é┬░├é┬░├é┬░├é┬░├é┬░├é┬░├é┬░├é┬░├é┬░├é┬░├é┬░├é┬░├é┬░├é┬░├é┬░├é┬░├é┬░├é┬░├é┬░├é┬░├é┬░├é┬░├é┬░├âΓÇ║

Format                           : MPEG Audio
Format version                   : Version 1
Format profile                   : Layer 3
Codec ID                         : 55
Codec ID/Hint                    : MP3
Duration                         : 1h 34mn
Bit rate mode                    : Constant
Bit rate                         : 112 Kbps
Minimum bit rate                 : 112 Kbps
Channel(s)                       : 2 channels
Sampling rate                    : 44.1 KHz
Resolution                       : 16 bits
Stream size                      : 75.4 MiB (9%)
Alignment                        : Split accross interleaves
Interleave, duration             : 83 ms (2.00 video frames)
Interleave, preload duration     : 500 ms
Writing library                  : LAME3.98r
Encoding settings                : CBR
    ├â┼ô├â┼ô├â┼ô├â┼ô├â┼ô├â┼ô├â┼ô├â┼ô├â┼ô├â┼ô├â┼ô├â┼ô├â┼ô├â┼ô├â┼ô├â┼ô├â┼ô├â┼ô├â┼ô├â┼ô├â┼ô├â┼ô├â┼ô├â┼ô├â┼ô├â┼ô├â┼ô├â┼ô├â┼ô├â┼ô├â┼ô├â┼ô├â┼ô├â┼ô├â┼ô├â┼ô├â┼ô├â┼ô├â┼ô├â┼ô├â┼ô├â┼ô├â┼ô├â┼ô├â┼ô├â┼ô├â┼ô├â┼ô├â┼ô├â┼ô├â┼ô├â┼ô├â┼ô├â┼ô├â┼ô├â┼ô├â┼ô├â┼ô├â┼ô├â┼ô├â┼ô├â┼ô├â┼ô├â┼ô├â┼ô├â┼ô├â┼ô├â┼ô├â┼ô├â┼ô

                          ├âΓÇ║├é┬░├é┬░├é┬░├é┬░├é┬░├é┬░├é┬░├é┬░├é┬░├é┬░├é┬░├é┬░├é┬░├é┬░├é┬░├é┬░├é┬░├é┬░├é┬░├é┬░├é┬░├é┬░├é┬░├é┬░├âΓÇ║
                         ├âΓÇ║├âΓÇ║          Plot          ├âΓÇ║├âΓÇ║
                          ├âΓÇ║├é┬░├é┬░├é┬░├é┬░├é┬░├é┬░├é┬░├é┬░├é┬░├é┬░├é┬░├é┬░├é┬░├é┬░├é┬░├é┬░├é┬░├é┬░├é┬░├é┬░├é┬░├é┬░├é┬░├é┬░├âΓÇ║

In the final installment of the Resident Evil series, 
Milla Jovovich returns as zombie-killing soldier 
Alice, who's left to roam the ruins of Las Vegas 
with a small band of survivors when a string of viral 
outbreaks nearly wipes out humankind. Alice has 
always been obsessed with bringing down the Umbrella 
Corp. but now must battle the undead -- and her 
extinction. Oded Fehr, Mike Epps, Ali Larter and 
rhythm-and-blues singer Ashanti also star.

Starring: Milla Jovovich, Oded Fehr

Director: Russell Mulcahy
    ├â┼ô├â┼ô├â┼ô├â┼ô├â┼ô├â┼ô├â┼ô├â┼ô├â┼ô├â┼ô├â┼ô├â┼ô├â┼ô├â┼ô├â┼ô├â┼ô├â┼ô├â┼ô├â┼ô├â┼ô├â┼ô├â┼ô├â┼ô├â┼ô├â┼ô├â┼ô├â┼ô├â┼ô├â┼ô├â┼ô├â┼ô├â┼ô├â┼ô├â┼ô├â┼ô├â┼ô├â┼ô├â┼ô├â┼ô├â┼ô├â┼ô├â┼ô├â┼ô├â┼ô├â┼ô├â┼ô├â┼ô├â┼ô├â┼ô├â┼ô├â┼ô├â┼ô├â┼ô├â┼ô├â┼ô├â┼ô├â┼ô├â┼ô├â┼ô├â┼ô├â┼ô├â┼ô├â┼ô├â┼ô├â┼ô├â┼ô├â┼ô├â┼ô├â┼ô├â┼ô 
http://bit-byte.forums-free.com/